<?xml version="1.0" encoding="UTF-8" standalone="no"?>
<!-- Created with Inkscape (http://www.inkscape.org/) -->

<svg
   xmlns:dc="http://purl.org/dc/elements/1.1/"
   xmlns:cc="http://creativecommons.org/ns#"
   xmlns:rdf="http://www.w3.org/1999/02/22-rdf-syntax-ns#"
   xmlns:svg="http://www.w3.org/2000/svg"
   xmlns="http://www.w3.org/2000/svg"
   xmlns:xlink="http://www.w3.org/1999/xlink"
   xmlns:sodipodi="http://sodipodi.sourceforge.net/DTD/sodipodi-0.dtd"
   xmlns:inkscape="http://www.inkscape.org/namespaces/inkscape"
   width="744.09448819"
   height="1052.3622047"
   id="svg2"
   version="1.1"
   inkscape:version="0.48.4 r9939"
   sodipodi:docname="New document 1">
  <defs
     id="defs4">
    <linearGradient
       id="linearGradient3843">
      <stop
         style="stop-color:#22a6e9;stop-opacity:1;"
         offset="0"
         id="stop3845" />
      <stop
         style="stop-color:#3bb4d1;stop-opacity:1;"
         offset="1"
         id="stop3847" />
    </linearGradient>
    <linearGradient
       id="linearGradient3833">
      <stop
         style="stop-color:#e7f2be;stop-opacity:1;"
         offset="0"
         id="stop3835" />
      <stop
         style="stop-color:#dbdaaf;stop-opacity:1;"
         offset="1"
         id="stop3837" />
    </linearGradient>
    <linearGradient
       inkscape:collect="always"
       xlink:href="#linearGradient3833"
       id="linearGradient3839"
       x1="105.28125"
       y1="173.98438"
       x2="265.65625"
       y2="173.98438"
       gradientUnits="userSpaceOnUse" />
    <linearGradient
       inkscape:collect="always"
       xlink:href="#linearGradient3833"
       id="linearGradient3841"
       x1="42.4375"
       y1="199.5625"
       x2="204.5625"
       y2="199.5625"
       gradientUnits="userSpaceOnUse" />
    <linearGradient
       inkscape:collect="always"
       xlink:href="#linearGradient3843"
       id="linearGradient3853"
       x1="122.42641"
       y1="129.55554"
       x2="62.455818"
       y2="43.677402"
       gradientUnits="userSpaceOnUse" />
    <linearGradient
       inkscape:collect="always"
       xlink:href="#linearGradient3843"
       id="linearGradient3865"
       gradientUnits="userSpaceOnUse"
       x1="122.42641"
       y1="129.55554"
       x2="62.455818"
       y2="43.677402"
       gradientTransform="translate(366.42857,-2.1428571)" />
    <linearGradient
       inkscape:collect="always"
       xlink:href="#linearGradient3833"
       id="linearGradient3867"
       gradientUnits="userSpaceOnUse"
       x1="42.4375"
       y1="199.5625"
       x2="204.5625"
       y2="199.5625"
       gradientTransform="translate(366.42857,-2.1428571)" />
    <linearGradient
       inkscape:collect="always"
       xlink:href="#linearGradient3833"
       id="linearGradient3869"
       gradientUnits="userSpaceOnUse"
       x1="105.28125"
       y1="173.98438"
       x2="265.65625"
       y2="173.98438"
       gradientTransform="translate(366.42857,-2.1428571)" />
    <linearGradient
       inkscape:collect="always"
       xlink:href="#linearGradient3843"
       id="linearGradient3872"
       gradientUnits="userSpaceOnUse"
       gradientTransform="translate(366.42857,-2.1428571)"
       x1="122.42641"
       y1="129.55554"
       x2="62.455818"
       y2="43.677402" />
    <linearGradient
       inkscape:collect="always"
       xlink:href="#linearGradient3843"
       id="linearGradient3875"
       gradientUnits="userSpaceOnUse"
       gradientTransform="translate(-0.00893,0.0133929)"
       x1="122.42641"
       y1="129.55554"
       x2="62.455818"
       y2="43.677402" />
  </defs>
  <sodipodi:namedview
     id="base"
     pagecolor="#ffffff"
     bordercolor="#666666"
     borderopacity="1.0"
     inkscape:pageopacity="0.0"
     inkscape:pageshadow="2"
     inkscape:zoom="0.98994949"
     inkscape:cx="721.48189"
     inkscape:cy="696.25751"
     inkscape:document-units="px"
     inkscape:current-layer="layer1"
     showgrid="false"
     inkscape:snap-bbox="true"
     inkscape:bbox-paths="true"
     inkscape:bbox-nodes="true"
     inkscape:snap-bbox-edge-midpoints="true"
     inkscape:snap-bbox-midpoints="true"
     inkscape:object-paths="true"
     inkscape:snap-intersection-paths="true"
     inkscape:object-nodes="true"
     inkscape:snap-smooth-nodes="true"
     inkscape:snap-midpoints="true"
     inkscape:snap-object-midpoints="true"
     inkscape:snap-center="true"
     inkscape:window-width="2560"
     inkscape:window-height="1408"
     inkscape:window-x="0"
     inkscape:window-y="0"
     inkscape:window-maximized="1" />
  <metadata
     id="metadata7">
    <rdf:RDF>
      <cc:Work
         rdf:about="">
        <dc:format>image/svg+xml</dc:format>
        <dc:type
           rdf:resource="http://purl.org/dc/dcmitype/StillImage" />
        <dc:title></dc:title>
      </cc:Work>
    </rdf:RDF>
  </metadata>
  <g
     inkscape:label="Layer 1"
     inkscape:groupmode="layer"
     id="layer1">
    <path
       style="fill:url(#linearGradient3875);fill-opacity:1;stroke:none"
       d="m 92.40625,62.4375 c -27.7,0 -50,22.3 -50,50 l 0,123.21875 c 0,5.19375 0.79343,10.20359 2.25,14.90625 -1.45657,-4.70266 -2.21875,-9.7125 -2.21875,-14.90625 l 0,-68.75 c 32.81102,-26.20748 55.40625,-53.4375 55.40625,-53.4375 0,0 33.5759,25.37947 50.71875,46.09375 17.14286,20.71429 27.13839,63.55357 36.78125,87.125 6.25388,15.28725 11.18727,27.80561 19.21875,38.96875 l 11.09375,0 c 0.94081,0 1.88481,-0.043 2.8125,-0.0937 -12.20368,-13.17483 -17.91361,-27.84092 -25.6875,-46.84375 C 183.13839,215.14732 173.14286,172.27679 156,151.5625 138.85715,130.84822 105.28125,105.5 105.28125,105.5 135.45476,94.421907 163.96976,77.272724 183.09375,62.4375 l -90.6875,0 z m 173,178.1875 c -0.0774,0.794 -0.16746,1.59257 -0.28125,2.375 0.11356,-0.77973 0.20384,-1.5838 0.28125,-2.375 z M 45.6875,253.53125 c 0.78668,2.06529 1.70844,4.07792 2.75,6 -1.04536,-1.92911 -1.96142,-3.92667 -2.75,-6 z m 2.75,6 c 0.76794,1.41716 1.60322,2.79541 2.5,4.125 -0.89678,-1.32959 -1.73206,-2.70784 -2.5,-4.125 z m 3.90625,6.09375 c 0.95046,1.27016 1.96648,2.51551 3.03125,3.6875 -1.07455,-1.18276 -2.07315,-2.40479 -3.03125,-3.6875 z m 202.59375,1.0625 c -0.38652,0.48971 -0.78323,0.96297 -1.1875,1.4375 0.40354,-0.47345 0.80162,-0.94895 1.1875,-1.4375 z m -10.53125,9.9375 c -0.43878,0.30775 -0.89469,0.61243 -1.34375,0.90625 0.45141,-0.29529 0.90272,-0.59689 1.34375,-0.90625 z m -3.4375,2.1875 c -0.62996,0.36898 -1.25889,0.72071 -1.90625,1.0625 0.64304,-0.33985 1.28038,-0.69581 1.90625,-1.0625 z"
       id="rect3859"
       inkscape:connector-curvature="0" />
    <path
       style="fill:url(#linearGradient3841);stroke:none;stroke-width:1px;stroke-linecap:butt;stroke-linejoin:miter;stroke-opacity:1;fill-opacity:1"
       d="M 97.84375 113.46875 C 97.84375 113.46875 75.248519 140.69877 42.4375 166.90625 L 42.4375 235.65625 C 42.4375 263.35625 64.7375 285.65625 92.4375 285.65625 L 204.5625 285.65625 C 196.53102 274.49311 191.59763 261.97475 185.34375 246.6875 C 175.70089 223.11607 165.70536 180.27679 148.5625 159.5625 C 131.41965 138.84822 97.84375 113.46875 97.84375 113.46875 z "
       id="path2991" />
    <path
       style="fill:url(#linearGradient3839);stroke:none;stroke-width:1px;stroke-linecap:butt;stroke-linejoin:miter;stroke-opacity:1;fill-opacity:1"
       d="M 183.125 62.40625 C 164.00081 77.247492 135.47258 94.415361 105.28125 105.5 C 105.28125 105.5 138.85715 130.84822 156 151.5625 C 173.14286 172.27679 183.13839 215.14732 192.78125 238.71875 C 200.55514 257.72158 206.26507 272.38767 218.46875 285.5625 C 244.85475 284.11797 265.65625 262.41544 265.65625 235.65625 L 265.65625 112.40625 C 265.65625 84.70625 243.35625 62.40625 215.65625 62.40625 L 183.125 62.40625 z "
       id="path2991-2" />
    <path
       sodipodi:type="arc"
       style="fill:#9e0101;fill-opacity:1;stroke:none"
       id="path3855"
       sodipodi:cx="222.32143"
       sodipodi:cy="136.82646"
       sodipodi:rx="14.821428"
       sodipodi:ry="14.821428"
       d="m 237.14285,136.82646 a 14.821428,14.821428 0 1 1 -29.64285,0 14.821428,14.821428 0 1 1 29.64285,0 z"
       transform="translate(-117.04018,22.336485)" />
    <path
       style="fill:none;stroke:#9e0101;stroke-width:5;stroke-linecap:butt;stroke-linejoin:miter;stroke-miterlimit:4;stroke-opacity:1;stroke-dasharray:none"
       d="m 105.28125,159.16295 c 18.21875,40.39955 20.80357,63.15963 50.43304,75.34209 29.62946,12.18246 62.01956,1.15121 109.94196,1.15121"
       id="path3857"
       inkscape:connector-curvature="0"
       sodipodi:nodetypes="csc" />
  </g>
</svg>
