<?xml version="1.0" encoding="UTF-8" standalone="no"?>
<!-- Created with Inkscape (http://www.inkscape.org/) -->

<svg
   xmlns:dc="http://purl.org/dc/elements/1.1/"
   xmlns:cc="http://creativecommons.org/ns#"
   xmlns:rdf="http://www.w3.org/1999/02/22-rdf-syntax-ns#"
   xmlns:svg="http://www.w3.org/2000/svg"
   xmlns="http://www.w3.org/2000/svg"
   xmlns:xlink="http://www.w3.org/1999/xlink"
   xmlns:inkscape="http://www.inkscape.org/namespaces/inkscape"
   version="1.1"
   width="300"
   height="180"
   id="svg2">
  <defs
     id="defs4">
    <inkscape:path-effect
       effect="spiro"
       id="path-effect3875" />
    <linearGradient
       id="linearGradient3000">
      <stop
         id="stop3002"
         style="stop-color:#a40000;stop-opacity:1"
         offset="0" />
      <stop
         id="stop3004"
         style="stop-color:#ea2323;stop-opacity:1"
         offset="1" />
    </linearGradient>
    <radialGradient
       cx="225.29752"
       cy="298.90594"
       r="33.48"
       fx="225.29752"
       fy="298.90594"
       id="radialGradient3805"
       xlink:href="#linearGradient3000"
       gradientUnits="userSpaceOnUse"
       gradientTransform="matrix(8.4282752e-6,2.8697327,-6.1467046,0,2014.8958,-237.16071)" />
    <radialGradient
       cx="215.15077"
       cy="302.26352"
       r="19.97707"
       fx="215.15077"
       fy="302.26352"
       id="radialGradient3807"
       xlink:href="#linearGradient3000"
       gradientUnits="userSpaceOnUse"
       gradientTransform="matrix(1.2866005e-5,4.8094473,-9.3629879,1.0675665e-5,3007.6981,-625.37661)" />
    <radialGradient
       cx="225.29755"
       cy="298.9061"
       r="33.48"
       fx="225.29755"
       fy="298.9061"
       id="radialGradient3809"
       xlink:href="#linearGradient3000"
       gradientUnits="userSpaceOnUse"
       gradientTransform="matrix(1.0785649e-5,2.8697321,-6.1467045,5.2867046e-6,2014.8961,-237.16224)" />
  </defs>
  <metadata
     id="metadata7">
    <rdf:RDF>
      <cc:Work
         rdf:about="">
        <dc:format>image/svg+xml</dc:format>
        <dc:type
           rdf:resource="http://purl.org/dc/dcmitype/StillImage" />
        <dc:title></dc:title>
      </cc:Work>
    </rdf:RDF>
  </metadata>
  <g
     transform="translate(0,-872.36218)"
     id="layer1">
    <g
       transform="matrix(1.2106879,0,0,1.2106879,-26.13321,-66.536773)"
       id="flowRoot2985"
       style="font-size:144px;font-style:italic;font-variant:normal;font-weight:normal;font-stretch:normal;line-height:125%;letter-spacing:0px;word-spacing:0px;fill:#000000;fill-opacity:1;stroke:none;font-family:Standard Symbols L;-inkscape-font-specification:Standard Symbols L Italic">
      <g
         transform="matrix(1.1907852,0,0,1.1907852,-49.855953,383.00968)"
         id="g3811"
         style="fill:#767676;fill-opacity:1;stroke:none">
        <path
           d="m 134.3281,439.19895 11.808,0 5.328,-26.352 14.256,0 1.728,-9.216 -14.256,0 12.528,-62.352 -7.344,0 -56.16,62.352 -1.728,9.216 39.168,0 -5.328,26.352 m 15.984,-80.064 -8.928,44.496 -31.392,0 40.32,-44.496"
           id="path3813"
           style="fill:#767676;fill-opacity:1;stroke:none" />
        <path
           d="m 186.35218,373.03057 c -7.32621,0 -13.3893,3.78943 -18.27344,11.53669 -3.28417,5.13678 -5.47362,10.86303 -6.90518,17.93661 -3.53679,17.85238 1.51578,29.38909 12.96826,29.38909 11.45247,0 21.22078,-11.53671 24.75757,-29.38909 3.53679,-17.59975 -1.51578,-29.4733 -12.54721,-29.4733 m -0.75788,3.03154 c 7.242,0 8.92619,8.16834 5.30519,26.18913 -3.621,18.18922 -8.50516,26.18913 -15.91558,26.18913 -7.57884,0 -9.34724,-7.9157 -5.64203,-26.27334 3.70521,-18.35763 8.50516,-26.10492 16.25242,-26.10492"
           id="path3815"
           style="fill:#767676;fill-opacity:1;stroke:none" />
        <path
           d="m 229.10071,439.19894 11.808,0 5.328,-26.352 14.256,0 1.728,-9.216 -14.256,0 12.528,-62.352 -7.344,0 -56.16,62.352 -1.728,9.216 39.168,0 -5.328,26.352 m 15.984,-80.064 -8.928,44.496 -31.392,0 40.32,-44.496"
           id="path3817"
           style="fill:#767676;fill-opacity:1;stroke:none" />
      </g>
      <g
         transform="matrix(0.79065037,0,0,0.79065037,-4.7155885,558.26233)"
         id="g3800">
        <path
           d="m 134.3281,439.19895 11.808,0 5.328,-26.352 14.256,0 1.728,-9.216 -14.256,0 12.528,-62.352 -7.344,0 -56.16,62.352 -1.728,9.216 39.168,0 -5.328,26.352 m 15.984,-80.064 -8.928,44.496 -31.392,0 40.32,-44.496"
           id="path2994"
           style="fill:url(#radialGradient3805);fill-opacity:1;stroke:#840e00;stroke-opacity:1" />
        <path
           d="m 186.35218,373.03057 c -7.32621,0 -13.3893,3.78943 -18.27344,11.53669 -3.28417,5.13678 -5.47362,10.86303 -6.90518,17.93661 -3.53679,17.85238 1.51578,29.38909 12.96826,29.38909 11.45247,0 21.22078,-11.53671 24.75757,-29.38909 3.53679,-17.59975 -1.51578,-29.4733 -12.54721,-29.4733 m -0.75788,3.03154 c 7.242,0 8.92619,8.16834 5.30519,26.18913 -3.621,18.18922 -8.50516,26.18913 -15.91558,26.18913 -7.57884,0 -9.34724,-7.9157 -5.64203,-26.27334 3.70521,-18.35763 8.50516,-26.10492 16.25242,-26.10492"
           id="path2996"
           style="fill:url(#radialGradient3807);fill-opacity:1;stroke:#840e00;stroke-opacity:1" />
        <path
           d="m 229.10071,439.19894 11.808,0 5.328,-26.352 14.256,0 1.728,-9.216 -14.256,0 12.528,-62.352 -7.344,0 -56.16,62.352 -1.728,9.216 39.168,0 -5.328,26.352 m 15.984,-80.064 -8.928,44.496 -31.392,0 40.32,-44.496"
           id="path2998"
           style="fill:url(#radialGradient3809);fill-opacity:1;stroke:#840e00;stroke-opacity:1" />
      </g>
      <rect
         width="24.408493"
         height="24.408493"
         rx="4.8848796"
         ry="0"
         x="30.838417"
         y="881.59277"
         id="rect3841"
         style="fill:#767676;fill-opacity:1;stroke:none" />
      <rect
         width="24.408493"
         height="24.408493"
         rx="4.8848796"
         ry="0"
         x="30.838417"
         y="855.87823"
         id="rect3843"
         style="fill:none;stroke:#767676;stroke-width:0.79065037;stroke-opacity:1" />
      <rect
         width="24.408493"
         height="24.408493"
         rx="4.8848796"
         ry="0"
         x="30.838417"
         y="830.16357"
         id="rect3845"
         style="fill:#767676;fill-opacity:1;stroke:none" />
      <rect
         width="24.408493"
         height="24.408493"
         rx="4.8848796"
         ry="0"
         x="30.838417"
         y="804.44897"
         id="rect3847"
         style="fill:#767676;fill-opacity:1;stroke:none" />
      <text
         x="201.02036"
         y="110.90001"
         transform="matrix(0.8259767,0,0,0.8259767,21.585423,54.957824)"
         id="text3849"
         xml:space="preserve"
         style="font-size:40px;font-style:normal;font-weight:normal;line-height:125%;letter-spacing:0px;word-spacing:0px;fill:#000000;fill-opacity:1;stroke:none;font-family:Sans"><tspan
           x="201.02036"
           y="110.90001"
           id="tspan3851" /></text>
      <g
         transform="matrix(0.70839051,-0.70582071,0.70582071,0.70839051,-80.595004,129.72915)"
         id="g3879"
         style="fill:none;stroke:#767676;stroke-opacity:1">
        <g
           transform="matrix(0.79065037,0,0,0.79065037,-522.11344,496.11584)"
           id="g3887"
           style="stroke:#a40000;stroke-opacity:1">
          <path
             d="m 128.28937,115.95078 a 13.131983,13.131983 0 1 1 -26.26397,0 13.131983,13.131983 0 1 1 26.26397,0 z"
             transform="matrix(0.8259767,0,0,0.8259767,21.585423,54.957824)"
             id="path3861"
             style="fill:none;stroke:#a40000;stroke-width:4.88899994;stroke-linecap:butt;stroke-linejoin:miter;stroke-miterlimit:4;stroke-opacity:1;stroke-dasharray:none;stroke-dashoffset:0" />
          <path
             d="m 118.56383,159.94958 0,24.35106 c 0,0 0.0249,1.55447 -1.86107,1.55447 -1.88591,0 -1.86111,-1.55447 -1.86111,-1.55447 l 0,-24.35106"
             id="path3869"
             style="fill:none;stroke:#a40000;stroke-width:2.16809916;stroke-linecap:butt;stroke-linejoin:miter;stroke-miterlimit:4;stroke-opacity:1;stroke-dasharray:none" />
        </g>
      </g>
    </g>
  </g>
</svg>
